<svg width="100" height="80" viewBox="0 0 100 80" fill="none" xmlns="http://www.w3.org/2000/svg">
<path d="M92.316 26.4571C68.5087 4.51027 31.4817 4.5183 7.68385 26.4571C6.78892 27.2821 6.77145 28.679 7.63682 29.5348L12.2378 34.0844C13.0629 34.9013 14.3905 34.9188 15.2478 34.1353C34.8558 16.2317 65.1413 16.2277 84.7533 34.1353C85.6106 34.9188 86.9383 34.9 87.7633 34.0844L92.3643 29.5348C93.2284 28.679 93.2109 27.2821 92.316 26.4571ZM49.9999 52.8571C45.2498 52.8571 41.3999 56.6942 41.3999 61.4286C41.3999 66.1629 45.2498 70 49.9999 70C54.7501 70 58.5999 66.1629 58.5999 61.4286C58.5999 56.6942 54.7501 52.8571 49.9999 52.8571ZM77.2337 41.6621C61.7456 28.0107 38.2367 28.0254 22.7661 41.6621C21.8389 42.479 21.8094 43.8973 22.6895 44.7625L27.3174 49.3147C28.1236 50.1076 29.4217 50.1612 30.2804 49.4219C41.5612 39.7027 58.4642 39.7241 69.7181 49.4219C70.5768 50.1612 71.8748 50.1089 72.6811 49.3147L77.309 44.7625C78.1905 43.8973 78.1596 42.4777 77.2337 41.6621Z" fill="white"/>
</svg>
